<?xml version="1.0" encoding="iso-8859-1"?>
<!-- Uploaded to: SVG Repo, www.svgrepo.com, Generator: SVG Repo Mixer Tools -->
<svg fill="#000000" height="800px" width="800px" version="1.1" id="Capa_1" xmlns="http://www.w3.org/2000/svg" xmlns:xlink="http://www.w3.org/1999/xlink" 
	 viewBox="0 0 59.939 59.939" xml:space="preserve">
<path d="M38.97,16.224c5.112-3.265,5.978-7.649,5.081-10.665c-0.99-3.333-4.158-5.558-7.883-5.558
	c-1.997-0.04-3.969,0.741-5.3,2.088c-1.192,1.205-1.838,2.813-1.818,4.506l0.042,12.8c-3.2,2.793-6.53,5.733-8.171,7.184
	c-3.096,2.349-5.029,5.922-5.308,9.817c-0.256,3.579,0.896,6.931,3.16,9.194c3.112,3.112,7.797,3.326,10.438,3.156l0.007,1.787
	c0,0.619-0.054,1.088-0.168,1.474c-0.574,1.933-2.378,3.932-4.403,3.932c-2.294,0-4.16-1.866-4.16-4.161c0-1.104-0.896-2-2-2
	s-2,0.896-2,2c0,4.5,3.66,8.161,8.16,8.161c4.084,0,7.235-3.417,8.237-6.792c0.228-0.767,0.334-1.597,0.334-2.621l-0.013-3.167
	c4.062-1.517,6.674-4.894,6.674-8.872c0-4.19-2.871-7.714-6.746-8.734L33.1,21.211C36.078,18.62,38.492,16.551,38.97,16.224z
	 M33.713,4.901c0.575-0.582,1.453-0.913,2.439-0.899c1.983,0,3.576,1.055,4.064,2.697c0.613,2.065-0.689,4.423-3.4,6.155
	c-0.407,0.26-1.852,1.468-3.738,3.087L33.05,6.573C33.042,5.916,33.266,5.354,33.713,4.901z M21.602,42.762
	c-1.422-1.422-2.169-3.695-1.998-6.081c0.197-2.766,1.576-5.3,3.782-6.952c0.044-0.032,0.086-0.066,0.127-0.103
	c1.648-1.458,3.621-3.196,5.601-4.933l0.02,4.903c-4.092,0.716-6.915,4.003-6.915,8.343c0,1.104,0.896,2,2,2s2-0.896,2-2
	c0-2.128,1.113-3.656,2.931-4.231l0.045,11.025C27.308,44.884,23.692,44.852,21.602,42.762z M35.88,38.487
	c0,1.971-1.149,3.468-2.692,4.431l-0.036-8.883C34.765,34.876,35.88,36.545,35.88,38.487z"/>
</svg>